 <svg version="1.0" xmlns="http://www.w3.org/2000/svg" width="700.000000pt" height="560.000000pt" viewBox="0 0 700.000000 560.000000" preserveAspectRatio="xMidYMid meet">
<metadata>
Created by potrace 1.12, written by Peter Selinger 2001-2015
</metadata>
<g transform="translate(0.000000,560.000000) scale(0.100000,-0.100000)" fill="" stroke="none">
<path d="M0 2800 l0 -2800 3500 0 3500 0 0 2800 0 2800 -3500 0 -3500 0 0
-2800z m1749 874 c2 -2 -2 -10 -9 -19 -17 -20 -9 -66 25 -140 15 -33 33 -73
40 -90 8 -16 40 -88 72 -160 33 -71 65 -145 72 -162 8 -18 17 -33 21 -33 17 0
43 43 71 116 16 44 39 104 51 134 11 30 38 106 60 169 45 128 43 151 -15 176
-30 13 -25 14 83 14 l115 1 -31 -20 c-27 -18 -58 -67 -85 -137 -5 -13 -13 -33
-19 -45 -36 -84 -98 -239 -130 -328 -89 -248 -112 -300 -131 -300 -8 0 -85
155 -146 295 -19 44 -52 118 -73 165 -21 47 -48 108 -60 135 -54 124 -94 195
-118 212 l-27 18 35 6 c33 6 190 1 199 -7z m911 -1 c13 -4 13 -6 0 -16 -37
-29 -40 -61 -40 -394 0 -290 2 -328 17 -345 14 -16 33 -18 141 -18 184 0 234
19 293 112 30 46 34 50 37 29 2 -12 -1 -35 -6 -49 -5 -15 -16 -53 -23 -84
l-12 -58 -328 0 c-301 0 -390 7 -310 25 16 3 37 15 47 27 17 18 19 46 24 328
6 340 0 399 -40 427 l-25 18 35 6 c36 6 163 1 190 -8z m680 -962 c0 -383 -4
-592 -10 -596 -7 -4 -10 195 -10 589 0 391 3 596 10 596 7 0 10 -203 10 -589z
m240 368 c8 -33 42 -32 50 1 3 14 12 25 20 25 11 0 16 -17 18 -69 2 -38 1 -75
-2 -82 -9 -24 -36 -3 -36 27 0 24 -4 29 -25 29 -21 0 -25 -5 -25 -28 0 -34 -7
-43 -26 -35 -10 4 -14 25 -14 77 0 40 3 76 7 80 12 12 27 0 33 -25z m345 -38
c30 -76 29 -116 -3 -89 -28 25 -45 26 -71 6 -35 -27 -46 -9 -27 47 24 68 45
105 60 105 8 0 26 -30 41 -69z m439 53 c19 -18 20 -34 4 -69 -9 -19 -9 -28 0
-37 16 -16 15 -38 -2 -38 -7 0 -19 7 -26 15 -17 21 -27 19 -33 -6 -3 -12 -10
-18 -16 -14 -12 7 -15 147 -4 158 12 13 62 7 77 -9z m-234 -69 c0 -68 -2 -75
-20 -75 -18 0 -20 7 -20 75 0 68 2 75 20 75 18 0 20 -7 20 -75z m-81 -223
c139 -69 82 -262 -73 -249 -135 12 -161 186 -38 251 36 19 70 18 111 -2z
m1408 6 c33 -15 53 -33 53 -47 0 -15 -5 -14 -46 14 -45 31 -67 31 -107 3 -48
-33 -56 -49 -57 -99 0 -41 4 -51 35 -78 48 -42 92 -42 140 0 28 25 33 34 24
45 -6 8 -22 14 -35 14 -13 0 -24 4 -24 9 0 5 19 8 43 7 41 -1 42 -2 40 -35 -2
-52 -40 -83 -105 -88 -65 -5 -106 17 -132 70 -51 109 63 232 171 185z m381 -6
c-34 -3 -38 -7 -44 -37 -8 -44 0 -55 42 -55 44 0 42 -23 -2 -28 -34 -4 -44
-17 -44 -57 0 -39 11 -54 46 -65 26 -8 24 -9 -16 -7 l-45 2 -3 127 c-3 141 -4
139 68 128 l35 -5 -37 -3z m-2258 -119 c0 -96 2 -105 20 -110 30 -8 24 -25 -7
-21 l-28 3 -3 123 c-2 83 1 121 8 117 6 -4 10 -50 10 -112z m810 16 c0 -76 3
-92 20 -109 24 -24 57 -26 88 -4 20 14 22 23 22 109 0 52 4 97 10 100 6 4 10
-31 10 -99 0 -101 -1 -105 -26 -125 -35 -28 -86 -27 -119 2 -24 20 -27 31 -32
110 -5 91 0 123 17 112 5 -3 10 -46 10 -96z m518 5 c51 -52 97 -92 102 -89 6
3 10 47 10 96 0 50 4 88 8 85 13 -8 9 -229 -4 -233 -6 -2 -50 37 -98 87 -48
49 -91 90 -96 90 -6 0 -10 -37 -10 -85 0 -50 -4 -85 -10 -85 -6 0 -10 45 -10
115 0 63 4 115 8 115 5 0 50 -43 100 -96z"></path> 
 <path d="M3872 3029 c2 -6 8 -10 13 -10 5 0 11 4 13 10 2 6 -4 11 -13 11 -9 0
-15 -5 -13 -11z"></path> 
<path d="M4317 3074 c-14 -14 -7 -35 11 -32 9 2 17 10 17 17 0 16 -18 25 -28
15z"></path> 
<path d="M3945 2781 c-76 -46 -85 -124 -21 -183 59 -55 161 -17 182 68 9 35
-20 89 -62 113 -43 26 -60 26 -99 2z"></path> 
</g>
</svg>